<?xml version="1.0" encoding="UTF-8" standalone="no"?>
<!DOCTYPE svg PUBLIC "-//W3C//DTD SVG 1.1//EN" "http://www.w3.org/Graphics/SVG/1.1/DTD/svg11.dtd">
<svg width="100%" height="100%" viewBox="0 0 1024 1024" version="1.1" xmlns="http://www.w3.org/2000/svg" xmlns:xlink="http://www.w3.org/1999/xlink" xml:space="preserve" xmlns:serif="http://www.serif.com/" style="fill-rule:evenodd;clip-rule:evenodd;stroke-linejoin:round;stroke-miterlimit:2;">
    <g transform="matrix(1,0,0,1,-1095.51,0)">
        <g transform="matrix(1,0,0,1,1095.51,0)">
            <rect id="Artboard1" x="0" y="0" width="1024" height="1024" style="fill:none;"/>
            <g id="Artboard11" serif:id="Artboard1">
                <g transform="matrix(0.635152,1.58993e-32,0,1.19744,-341.416,37.1934)">
                    <path d="M1854.52,208.163C1854.52,152.912 1770.08,108.123 1665.92,108.123L1422.09,108.123C1317.93,108.123 1233.49,152.912 1233.49,208.163L1233.49,208.164C1233.49,263.415 1317.93,308.204 1422.09,308.204L1665.92,308.204C1770.08,308.204 1854.52,263.415 1854.52,208.164C1854.52,208.164 1854.52,208.163 1854.52,208.163Z" style="fill:white;"/>
                    <path d="M1854.52,208.163L1854.52,208.164C1854.52,263.415 1770.08,308.204 1665.92,308.204L1422.09,308.204C1317.93,308.204 1233.49,263.415 1233.49,208.164L1233.49,208.163C1233.49,152.912 1317.93,108.123 1422.09,108.123L1665.92,108.123C1770.08,108.123 1854.52,152.912 1854.52,208.163ZM1828.82,208.163C1828.82,160.441 1755.89,121.754 1665.92,121.754L1422.09,121.754C1332.12,121.754 1259.19,160.441 1259.19,208.163L1259.19,208.164C1259.19,255.886 1332.12,294.572 1422.09,294.572L1665.92,294.572C1755.89,294.572 1828.82,255.886 1828.82,208.164L1828.82,208.163Z"/>
                </g>
                <g transform="matrix(1.39129e-17,-0.385785,1.19744,5.98141e-17,58.0433,882.109)">
                    <path d="M1854.52,208.163C1854.52,152.912 1715.5,108.123 1544.01,108.123L1544,108.123C1372.51,108.123 1233.49,152.912 1233.49,208.163L1233.49,208.164C1233.49,263.415 1372.51,308.204 1544,308.204L1544.01,308.204C1715.5,308.204 1854.52,263.415 1854.52,208.164L1854.52,208.163Z" style="fill:white;"/>
                    <path d="M1854.52,208.163L1854.52,208.164C1854.52,263.415 1715.5,308.204 1544.01,308.204L1544,308.204C1372.51,308.204 1233.49,263.415 1233.49,208.164L1233.49,208.163C1233.49,152.912 1372.51,108.123 1544,108.123L1544.01,108.123C1715.5,108.123 1854.52,152.912 1854.52,208.163ZM1812.21,208.163C1812.21,160.441 1692.13,121.754 1544.01,121.754L1544,121.754C1395.88,121.754 1275.8,160.441 1275.8,208.163L1275.8,208.164C1275.8,255.886 1395.88,294.572 1544,294.572L1544.01,294.572C1692.13,294.572 1812.21,255.886 1812.21,208.164L1812.21,208.163Z"/>
                </g>
                <g transform="matrix(0.23133,-3.4627e-33,0,0.704382,353.919,139.829)">
                    <path d="M1854.52,208.163C1854.52,181.631 1822.43,156.185 1765.3,137.424C1708.17,118.663 1630.7,108.123 1549.91,108.123L1538.1,108.123C1457.32,108.123 1379.84,118.663 1322.71,137.424C1265.58,156.185 1233.49,181.631 1233.49,208.163C1233.49,208.163 1233.49,208.164 1233.49,208.164C1233.49,234.696 1265.58,260.142 1322.71,278.903C1379.84,297.664 1457.32,308.204 1538.1,308.204L1549.91,308.204C1630.7,308.204 1708.17,297.664 1765.3,278.903C1822.43,260.142 1854.52,234.696 1854.52,208.164L1854.52,208.163Z"/>
                </g>
                <g transform="matrix(0.635152,1.58993e-32,0,1.19744,-341.416,301.194)">
                    <path d="M1854.52,208.163C1854.52,152.912 1770.08,108.123 1665.92,108.123L1422.09,108.123C1317.93,108.123 1233.49,152.912 1233.49,208.163C1233.49,208.163 1233.49,208.164 1233.49,208.164C1233.49,263.415 1317.93,308.204 1422.09,308.204L1665.92,308.204C1770.08,308.204 1854.52,263.415 1854.52,208.164L1854.52,208.163Z" style="fill:white;"/>
                    <path d="M1854.52,208.163L1854.52,208.164C1854.52,263.415 1770.08,308.204 1665.92,308.204L1422.09,308.204C1317.93,308.204 1233.49,263.415 1233.49,208.164L1233.49,208.163C1233.49,152.912 1317.93,108.123 1422.09,108.123L1665.92,108.123C1770.08,108.123 1854.52,152.912 1854.52,208.163ZM1828.82,208.163C1828.82,160.441 1755.89,121.754 1665.92,121.754L1422.09,121.754C1332.12,121.754 1259.19,160.441 1259.19,208.163L1259.19,208.164C1259.19,255.886 1332.12,294.572 1422.09,294.572L1665.92,294.572C1755.89,294.572 1828.82,255.886 1828.82,208.164L1828.82,208.163Z"/>
                </g>
                <g transform="matrix(0.23133,-3.4627e-33,0,0.704382,353.919,403.83)">
                    <path d="M1854.52,208.163C1854.52,181.631 1822.43,156.185 1765.3,137.424C1708.17,118.663 1630.7,108.123 1549.91,108.123L1538.1,108.123C1457.32,108.123 1379.84,118.663 1322.71,137.424C1265.58,156.185 1233.49,181.631 1233.49,208.163C1233.49,208.163 1233.49,208.164 1233.49,208.164C1233.49,234.696 1265.58,260.142 1322.71,278.903C1379.84,297.664 1457.32,308.204 1538.1,308.204L1549.91,308.204C1630.7,308.204 1708.17,297.664 1765.3,278.903C1822.43,260.142 1854.52,234.696 1854.52,208.164L1854.52,208.163Z"/>
                </g>
                <g transform="matrix(0.23133,-3.4627e-33,0,0.704382,-49.2169,139.829)">
                    <path d="M1854.52,208.163C1854.52,181.631 1822.43,156.185 1765.3,137.424C1708.17,118.663 1630.7,108.123 1549.91,108.123L1538.1,108.123C1457.32,108.123 1379.84,118.663 1322.71,137.424C1265.58,156.185 1233.49,181.631 1233.49,208.163C1233.49,208.163 1233.49,208.164 1233.49,208.164C1233.49,234.696 1265.58,260.142 1322.71,278.903C1379.84,297.664 1457.32,308.204 1538.1,308.204L1549.91,308.204C1630.7,308.204 1708.17,297.664 1765.3,278.903C1822.43,260.142 1854.52,234.696 1854.52,208.164L1854.52,208.163Z"/>
                </g>
                <g transform="matrix(3.23594e-17,-0.687038,1.19744,4.92662e-17,58.0433,1704.79)">
                    <path d="M1854.52,208.163C1854.52,152.912 1776.46,108.123 1680.16,108.123C1595.06,108.123 1492.95,108.123 1407.85,108.123C1311.55,108.123 1233.49,152.912 1233.49,208.163C1233.49,208.163 1233.49,208.164 1233.49,208.164C1233.49,263.415 1311.55,308.204 1407.85,308.204C1492.95,308.204 1595.06,308.204 1680.16,308.204C1776.46,308.204 1854.52,263.415 1854.52,208.164C1854.52,208.164 1854.52,208.163 1854.52,208.163Z" style="fill:white;"/>
                    <path d="M1854.52,208.163L1854.52,208.164C1854.52,263.415 1776.46,308.204 1680.16,308.204L1407.85,308.204C1311.55,308.204 1233.49,263.415 1233.49,208.164L1233.49,208.163C1233.49,152.912 1311.55,108.123 1407.85,108.123L1680.16,108.123C1776.46,108.123 1854.52,152.912 1854.52,208.163ZM1830.76,208.163C1830.76,160.441 1763.34,121.754 1680.16,121.754L1407.85,121.754C1324.67,121.754 1257.25,160.441 1257.25,208.163L1257.25,208.164C1257.25,255.886 1324.67,294.572 1407.85,294.572L1680.16,294.572C1763.34,294.572 1830.76,255.886 1830.76,208.164L1830.76,208.163Z"/>
                </g>
            </g>
        </g>
    </g>
</svg>
