<?xml version="1.0" encoding="UTF-8" standalone="no"?>
<!DOCTYPE svg PUBLIC "-//W3C//DTD SVG 1.1//EN" "http://www.w3.org/Graphics/SVG/1.1/DTD/svg11.dtd">
<svg width="100%" height="100%" viewBox="0 0 564 601" version="1.1" xmlns="http://www.w3.org/2000/svg" xmlns:xlink="http://www.w3.org/1999/xlink" xml:space="preserve" xmlns:serif="http://www.serif.com/" style="fill-rule:evenodd;clip-rule:evenodd;stroke-linejoin:round;stroke-miterlimit:2;">
    <g transform="matrix(1,0,0,1,-1325.61,-211.99)">
        <g transform="matrix(1,0,0,1,1095.51,0)">
            <g transform="matrix(0.551787,1.38125e-32,0,1.04027,-229.404,99.5126)">
                <path d="M1854.52,208.163C1854.52,152.912 1770.08,108.123 1665.92,108.123L1422.09,108.123C1317.93,108.123 1233.49,152.912 1233.49,208.163L1233.49,208.164C1233.49,263.415 1317.93,308.204 1422.09,308.204L1665.92,308.204C1770.08,308.204 1854.52,263.415 1854.52,208.164L1854.52,208.163Z"/>
                <path d="M1854.52,208.163L1854.52,208.164C1854.52,263.415 1770.08,308.204 1665.92,308.204L1422.09,308.204C1317.93,308.204 1233.49,263.415 1233.49,208.164L1233.49,208.163C1233.49,152.912 1317.93,108.123 1422.09,108.123L1665.92,108.123C1770.08,108.123 1854.52,152.912 1854.52,208.163ZM1824.94,208.162C1824.94,161.578 1753.74,123.814 1665.92,123.814L1422.09,123.814C1334.27,123.814 1263.07,161.578 1263.07,208.163L1263.07,208.164C1263.07,254.749 1334.27,292.513 1422.09,292.513L1665.92,292.513C1753.74,292.513 1824.94,254.749 1824.94,208.164L1824.94,208.162Z"/>
            </g>
        </g>
        <g transform="matrix(1,0,0,1,1095.51,0)">
            <g transform="matrix(1.20868e-17,-0.33515,1.04027,5.19634e-17,117.626,833.532)">
                <path d="M1854.52,208.163C1854.52,152.912 1715.5,108.123 1544.01,108.123L1544,108.123C1372.51,108.123 1233.49,152.912 1233.49,208.163L1233.49,208.164C1233.49,263.415 1372.51,308.204 1544,308.204L1544.01,308.204C1715.5,308.204 1854.52,263.415 1854.52,208.164L1854.52,208.163Z"/>
                <path d="M1854.52,208.163L1854.52,208.164C1854.52,263.415 1715.5,308.204 1544.01,308.204L1544,308.204C1372.51,308.204 1233.49,263.415 1233.49,208.164L1233.49,208.163C1233.49,152.912 1372.51,108.123 1544,108.123L1544.01,108.123C1715.5,108.123 1854.52,152.912 1854.52,208.163ZM1805.82,208.162C1805.82,161.578 1688.6,123.814 1544.01,123.814L1544,123.814C1399.41,123.814 1282.19,161.578 1282.19,208.163L1282.19,208.164C1282.19,254.749 1399.41,292.513 1544,292.513L1544.01,292.513C1688.6,292.513 1805.82,254.749 1805.82,208.164L1805.82,208.162Z"/>
            </g>
        </g>
        <g transform="matrix(1,0,0,1,1095.51,0)">
            <g transform="matrix(0.200967,-3.00822e-33,0,0.61193,374.667,188.677)">
                <path d="M1854.52,208.161C1854.52,152.911 1718.14,108.123 1549.91,108.123L1538.1,108.123C1369.87,108.123 1233.49,152.911 1233.49,208.161C1233.49,208.163 1233.49,208.164 1233.49,208.166C1233.49,263.415 1369.87,308.204 1538.1,308.204L1549.91,308.204C1718.14,308.204 1854.52,263.415 1854.52,208.166C1854.52,208.164 1854.52,208.163 1854.52,208.161Z"/>
            </g>
        </g>
        <g transform="matrix(1,0,0,1,1095.51,0)">
            <g transform="matrix(0.551787,1.38125e-32,0,1.04027,-229.404,328.863)">
                <path d="M1854.52,208.163C1854.52,152.912 1770.08,108.123 1665.92,108.123L1422.09,108.123C1317.93,108.123 1233.49,152.912 1233.49,208.163L1233.49,208.164C1233.49,263.415 1317.93,308.204 1422.09,308.204L1665.92,308.204C1770.08,308.204 1854.52,263.415 1854.52,208.164L1854.52,208.163Z"/>
                <path d="M1854.52,208.163L1854.52,208.164C1854.52,263.415 1770.08,308.204 1665.92,308.204L1422.09,308.204C1317.93,308.204 1233.49,263.415 1233.49,208.164L1233.49,208.163C1233.49,152.912 1317.93,108.123 1422.09,108.123L1665.92,108.123C1770.08,108.123 1854.52,152.912 1854.52,208.163ZM1824.94,208.162C1824.94,161.578 1753.74,123.814 1665.92,123.814L1422.09,123.814C1334.27,123.814 1263.07,161.578 1263.07,208.163L1263.07,208.164C1263.07,254.749 1334.27,292.513 1422.09,292.513L1665.92,292.513C1753.74,292.513 1824.94,254.749 1824.94,208.164L1824.94,208.162Z"/>
            </g>
        </g>
        <g transform="matrix(1,0,0,1,1095.51,0)">
            <g transform="matrix(0.200967,-3.00822e-33,0,0.61193,374.667,418.028)">
                <path d="M1854.52,208.161C1854.52,152.911 1718.14,108.123 1549.91,108.123L1538.1,108.123C1369.87,108.123 1233.49,152.911 1233.49,208.161C1233.49,208.163 1233.49,208.164 1233.49,208.166C1233.49,263.415 1369.87,308.204 1538.1,308.204L1549.91,308.204C1718.14,308.204 1854.52,263.415 1854.52,208.166C1854.52,208.164 1854.52,208.163 1854.52,208.161Z"/>
            </g>
        </g>
        <g transform="matrix(1,0,0,1,1095.51,0)">
            <g transform="matrix(0.200967,-3.00822e-33,0,0.61193,24.4437,188.677)">
                <path d="M1854.52,208.161C1854.52,152.911 1718.14,108.123 1549.91,108.123L1538.1,108.123C1369.87,108.123 1233.49,152.911 1233.49,208.161L1233.49,208.166C1233.49,263.415 1369.87,308.204 1538.1,308.204L1549.91,308.204C1718.14,308.204 1854.52,263.415 1854.52,208.166C1854.52,208.164 1854.52,208.163 1854.52,208.161Z"/>
            </g>
        </g>
        <g transform="matrix(1,0,0,1,1095.51,0)">
            <g transform="matrix(2.81122e-17,-0.596863,1.04027,4.27999e-17,117.626,1548.24)">
                <path d="M1854.52,208.163C1854.52,152.912 1776.46,108.123 1680.16,108.123L1407.85,108.123C1311.55,108.123 1233.49,152.912 1233.49,208.163L1233.49,208.164C1233.49,263.415 1311.55,308.204 1407.85,308.204L1680.16,308.204C1776.46,308.204 1854.52,263.415 1854.52,208.164L1854.52,208.163Z"/>
                <path d="M1854.52,208.163L1854.52,208.164C1854.52,263.415 1776.46,308.204 1680.16,308.204L1407.85,308.204C1311.55,308.204 1233.49,263.415 1233.49,208.164L1233.49,208.163C1233.49,152.912 1311.55,108.123 1407.85,108.123L1680.16,108.123C1776.46,108.123 1854.52,152.912 1854.52,208.163ZM1827.17,208.162C1827.17,161.578 1761.35,123.814 1680.16,123.814L1407.85,123.814C1326.66,123.814 1260.84,161.578 1260.84,208.163L1260.84,208.164C1260.84,254.749 1326.66,292.513 1407.85,292.513L1680.16,292.513C1761.35,292.513 1827.17,254.749 1827.17,208.164L1827.17,208.162Z"/>
            </g>
        </g>
    </g>
</svg>
